<svg xmlns="http://www.w3.org/2000/svg" xmlns:xlink="http://www.w3.org/1999/xlink" viewBox="0,0,256,256" width="30px" height="30px" fill-rule="nonzero"><g fill="#e94f37" fill-rule="nonzero" stroke="none" stroke-width="1" stroke-linecap="butt" stroke-linejoin="miter" stroke-miterlimit="10" stroke-dasharray="" stroke-dashoffset="0" font-family="none" font-weight="none" font-size="none" text-anchor="none" style="mix-blend-mode: normal"><g transform="scale(8.53333,8.53333)"><path d="M27,6h-24c-1.105,0 -2,0.895 -2,2v14c0,1.105 0.895,2 2,2h24c1.105,0 2,-0.895 2,-2v-14c0,-1.105 -0.895,-2 -2,-2zM20,10h2v2h-2zM16,10h2v2h-2zM20,14v2h-2v-2zM12,10h2v2h-2zM16,14v2h-2v-2zM8,10h2v2h-2zM12,14v2h-2v-2zM4,10h2v2h-2zM4,14h4v2h-4zM6,20h-2v-2h2zM22,20h-14v-2h14zM26,20h-2v-2h2zM26,16h-4v-2h4zM26,12h-2v-2h2z"></path></g></g></svg>