<svg xmlns="http://www.w3.org/2000/svg" xmlns:xlink="http://www.w3.org/1999/xlink" viewBox="0,0,256,256" width="30px" height="30px" fill-rule="nonzero"><g fill="#393e41" fill-rule="nonzero" stroke="none" stroke-width="1" stroke-linecap="butt" stroke-linejoin="miter" stroke-miterlimit="10" stroke-dasharray="" stroke-dashoffset="0" font-family="none" font-weight="none" font-size="none" text-anchor="none" style="mix-blend-mode: normal"><g transform="scale(8.53333,8.53333)"><path d="M19.58789,3.00977c-2.07244,-0.08194 -4.17141,0.6675 -5.75391,2.25c-1.97494,1.97494 -2.2324,4.33856 -1.33203,6.58203l-8.33008,8.33008c-1.562,1.562 -1.562,4.09425 0,5.65625c1.562,1.562 4.09425,1.562 5.65625,0l8.33008,-8.33008c2.24347,0.90037 4.60709,0.64291 6.58203,-1.33203c2.11,-2.11 2.73663,-5.13687 1.89063,-7.79688l-4.63086,4.63086l-4,-1l-1,-4l4.63086,-4.63086c-0.665,-0.2115 -1.35216,-0.33206 -2.04297,-0.35937zM7,21c1.105,0 2,0.895 2,2c0,1.105 -0.895,2 -2,2c-1.105,0 -2,-0.895 -2,-2c0,-1.105 0.895,-2 2,-2z"></path></g></g></svg>